<svg xmlns="http://www.w3.org/2000/svg" width="256" height="256" xmlns:v="https://vecta.io/nano"><path d="M42 20c13.915.881 24.922 6.465 34.422 16.578C81.064 42.009 84.616 47.247 87 54l2.168-1.172C108.698 42.621 130.691 39.465 152 46c6.214 2.261 12.104 5.017 18 8l1.18-2.711c5.692-12.516 14.228-22.536 27.031-28.281C203.7 20.986 209.185 20.352 215 20c.695 12.513-4.21 22.817-12.25 32.188C197.282 58.047 191.495 62.17 184 65l1.102 1.434L190 73l1.559 2.078C200.809 88.053 204.35 103.26 203 119c-1.932 8.154-6.932 12.469-13.812 16.75-4.298 1.685-8.646 2.487-13.187 3.25l1.793 1.18c6.864 4.859 11.016 10.031 12.738 18.402l.406 2.543c.768 4.595 2.415 7.008 5.34 10.551 4.596 6.201 8.542 13.952 9.848 21.574L207 197c2.395 1.325 2.395 1.325 5 2 3.207 3.649 3.519 7.163 3.355 11.848-.666 4.033-2.958 6.104-6.105 8.465-5.085 1.554-8.886 1.357-13.562-.937-3.02-2.669-4.391-4.563-5.687-8.375.151-3.634.788-5.655 2.699-8.758 1.652-3.22 1.652-3.22.5-6.672l-1.512-3.445-1.488-3.492L189 185l-1.25 2.895C180.094 205.208 169.332 219.476 152 228c-3.395.719-3.395.719-6 1l-.883-2.047c-2.616-5.693-4.458-9.124-10.117-11.953-5.397-1.799-10.1-1.695-15.25.625-5.797 3.228-7.976 8.167-9.75 14.375-7.065-2.748-12.991-6.396-19-11l-2.316-1.738C78.468 208.965 72.437 197.174 68 185c-2.745 4.915-4.891 9.245-5 15 .969 1.685 1.97 3.352 3 5 .597 3.581.738 5.863-1.277 8.969-4.795 5.721-4.795 5.721-8.641 6.34-4.711.268-7.417-.065-11.082-3.184-2.895-2.774-3.918-4.277-4.312-8.375.37-4.439 1.516-6.332 4.313-9.75l2.023-1.328c2.573-2.177 2.96-3.945 3.852-7.172 2.482-8.027 6.033-15.06 11.375-21.562 2.907-3.683 3.554-6.919 4.281-11.488C68.054 149.495 72.661 144.734 79 140l2-1-2.633-.516C67.824 136.267 61.324 132.86 55 124c-4.154-10.113-2.017-23.14 1.831-33.164 3.167-7.247 6.912-14.136 11.916-20.285C70.403 68.502 71.71 66.293 73 64l-2.219-.324C66.192 62.561 62.791 59.724 59 57l-2.687-1.875c-8.474-7.787-14.941-19.437-15.5-31C41 21 41 21 42 20z" fill="#001243"/><path d="M108.42 54.855l2.702-.019 2.917-.003 3.016-.01 6.33-.007 9.619-.039 6.16-.006 2.88-.022c14.415.049 25.177 4.868 35.667 14.842 8.441 8.887 13.3 18.673 13.852 31.035-.288 8.008-3.001 14.316-8.875 19.813-5.909 4.987-12.939 6.01-20.363 5.951l-2.506.016c-2.71.013-5.42.004-8.13-.006l-5.693.009a2557.36 2557.36 0 0 1-11.902-.016 2200.37 2200.37 0 0 0-15.211.011 2468.68 2468.68 0 0 1-11.746 0c-1.869-.002-3.738 0-5.607.007-2.618.008-5.235-.004-7.852-.021l-2.312.018c-6.528-.076-12.05-1.408-17.114-5.782-7.634-8.907-9.178-14.841-8.484-26.449 1.314-12.225 8.971-21.734 17.984-29.488 6.823-5.226 15.938-9.79 24.67-9.833z" fill="#001344"/><path d="M42 20c13.915.881 24.922 6.465 34.422 16.578C81.064 42.009 84.616 47.247 87 54l2.168-1.172C108.698 42.621 130.691 39.465 152 46c6.214 2.261 12.104 5.017 18 8l1.18-2.711c5.692-12.516 14.228-22.536 27.031-28.281C203.7 20.986 209.185 20.352 215 20c.695 12.513-4.21 22.817-12.25 32.188C197.282 58.047 191.495 62.17 184 65l1.102 1.434L190 73l1.559 2.078C200.809 88.053 204.35 103.26 203 119c-1.617 6.828-5.265 11.114-11 15-7.095 4.199-14.057 4.152-22.069 4.161l-3.028.015-9.887.027-6.898.017-14.455.02-18.473.058-14.248.025-6.808.024-9.547.009-2.809.028c-7.882-.05-16.32-1.13-22.215-6.822l-1.871-1.746c-5.271-5.66-6.874-10.921-6.779-18.702.62-15.034 6.368-28.932 15.833-40.563C70.403 68.502 71.71 66.293 73 64l-2.219-.324C66.192 62.561 62.791 59.724 59 57l-2.687-1.875c-8.474-7.787-14.941-19.437-15.5-31C41 21 41 21 42 20zm32.496 53.859C66.972 84.625 64.342 96.059 66 109c1.143 3.278 2.625 5.495 5 8l2.5 2.813c6.397 5.597 11.43 6.337 19.722 6.349l2.505.015 8.196.027 5.71.017 11.974.02 15.306.058 11.798.025 5.64.024 7.911.009 2.331.028c8.196-.063 14.658-2.729 20.643-8.384 5.366-6.078 6.491-12.558 6.211-20.527C190.132 87.227 186.118 78.438 179 71l-2.215-2.336c-13.664-13.332-28.229-13.911-46.177-14.014l-6.304-.082c-20.182-.365-36.254 2.779-49.808 19.292z" fill="#10a700"/><path d="M140.375 148.938c5.988 3.478 11.109 8.464 13.816 14.891 1.888 7.405 2.36 16.224-1.191 23.172-4.077 6.087-9.646 11.346-16.742 13.559-7.981 1.56-14.871 1.108-22-2.937-5.649-4.056-9.598-9.21-12.258-15.621-1.131-10.275-.396-17.94 6.125-26.125 8.724-9.323 20.176-12.277 32.25-6.937z" fill="#29a82a"/><path d="M42 20c13.914.881 25.01 6.466 34.457 16.648C86 47.903 86 47.903 86 56c-1.828 1.852-1.828 1.852-4.25 3.625l-2.391 1.789L77 63l-1.934 1.367c-3.228.989-4.956-.336-7.879-1.867-13.02-6.992-20.567-17.329-25.5-31.187-.735-3.543-.904-6.704-.687-10.312l1-1z" fill="#001346"/><path d="M215 20c.695 12.513-4.21 22.817-12.25 32.188C196.745 58.612 190.178 62.868 182 66l-12-12c5.911-13.584 14.234-24.883 28.281-30.992C203.711 21.055 209.211 20 215 20z" fill="#001345"/><path d="M136.313 152.063c5.896 1.499 9.477 4.99 13.082 9.797 3.159 5.402 3.626 11.025 2.605 17.141-1.364 3.535-3.035 6.764-5 10h-2l-.785 1.859c-2.09 3.683-5.276 4.894-9.215 6.141-6.801.91-13.95.446-20-3-3.994-3.536-6.83-6.757-8-12l2.231.095 10.019.28 3.512.152c3.184.055 6.103.039 9.238-.527 3.099-3.142 4-4.607 4-9l-2-3v-3h-8c1.686-6.133 3.77-13.086 10.313-14.937z" fill="#26a328"/><path d="M140.375 148.938c5.988 3.478 11.109 8.464 13.816 14.891 1.888 7.405 2.36 16.224-1.191 23.172-4.077 6.087-9.646 11.346-16.742 13.559-7.981 1.56-14.871 1.108-22-2.937-5.649-4.056-9.598-9.21-12.258-15.621-1.131-10.275-.396-17.94 6.125-26.125 8.724-9.323 20.176-12.277 32.25-6.937zM113 156l-1 3-3 1c-3.74 6.473-4.947 12.584-4 20 2.277 6.381 6.299 11.36 12 15 6.383 2.701 14.107 3.48 20.672.984 4.857-2.408 4.857-2.408 7.328-6.984l3-1c4.2-6.04 5.016-12.854 4-20-1.843-6.578-6.37-11.294-12-15-8.868-3.622-19.81-4.17-27 3z" fill="#eaf8ea"/><path d="M215 22c-.577 13.566-6.188 24.984-16.008 34.367C193.879 60.558 188.165 63.663 182 66c-2.5-2.062-2.5-2.062-5-5-.312-3.812-.312-3.812 0-7l3.049-.578c4.889-1.41 7.721-4.579 11.162-8.18l1.981-2.009 6.183-6.358 6.248-6.379 3.87-3.973C213.892 22 213.892 22 215 22z" fill="#003365"/><path d="M41 21l9.529 9.657 7.054 7.201 3.703 3.806 5.397 5.508 1.648 1.727C71.745 52.314 74.148 53.747 79 54c.492 6.4.492 6.4-2 9.438L75 65c-11.617-3.047-20.571-9.861-27-20-4.473-7.777-7.372-14.882-7-24z" fill="#093a6a"/><path d="M159 79c2.975 1.437 4.554 3.032 6 6 .989 4.882.765 8.641-1.687 13-3.535 3.057-6.134 3.85-10.75 4.438-4.812-.591-6.197-1.993-9.562-5.437-2.312-3.258-2.472-6.063-2-10 4.442-7.966 9.269-9.368 18-8z" fill="#f1f4f4"/><path d="M107 79c3.661 1.592 6.164 3.424 8 7 .405 4.254.453 6.867-1.125 10.813-3.208 3.743-6.47 4.927-11.25 5.813C97.36 101.717 94.14 99.307 91 95c-.972-3.228-.911-5.762 0-9 3.954-6.886 8.588-7.719 16-7z" fill="#f1f5f3"/><path d="M144.367 149.164C150.688 153.572 155.59 159.281 157 167c1.006 10.629-.19 18.396-6.812 26.813-4.708 5.136-11.25 8.749-18.203 9.523-10.433.126-17.533-2.079-25.187-9.305-5.926-6.699-7.474-13.145-7.09-21.98.948-9.872 4.599-16.189 12.242-22.504 9.782-7.378 22.09-6.249 32.418-.383zm-38.992 9.711c-4.51 6.971-4.176 15.137-3.375 23.125 2.54 8.259 9.045 13.642 16.25 17.938 8.07 2.287 15.847 1.886 23.496-1.613 6.173-3.627 11.414-9.303 13.254-16.324 1.005-10.518.474-17.784-6.062-26.125-5.984-6.408-12.181-9.135-20.937-9.562-10.03.403-16.231 5.185-22.625 12.563z" fill="#0e9412"/><path d="M136.313 152.063c5.727 1.456 9.705 4.845 12.895 9.82 1.251 2.64 1.854 4.64 1.48 7.555L150 171l-1-1c-2.016-.234-4.038-.413-6.062-.562L137 169l8 14h-3c-1.556-2.085-2.877-4.082-4.187-6.312l-1.115-1.803C134.989 172.049 134 170.366 134 167h-8c1.686-6.133 3.77-13.086 10.313-14.937z" fill="#27a827"/><path d="M56 199c3.221 1.874 5.495 3.212 6.547 6.938.282 4.134-.253 5.699-2.922 9-2.734 2.148-3.992 2.947-7.375 3.563-4.195-.645-5.632-2.13-8.172-5.426-1.978-3.805-1.344-6.01-.078-10.074 3.555-4.183 6.646-4.845 12-4z" fill="#00e504"/><path d="M206 199c4.279 2.456 4.279 2.456 6 5 .809 3.174.754 5.819 0 9-1.992 3.051-3.337 4.594-6.937 5.473-3.884.287-5.741-.265-9.062-2.41-2.324-3.558-2.795-5.715-2.551-9.902.628-2.461 1.324-3.507 3.176-5.223 3.707-2.128 5.208-2.806 9.375-1.937z" fill="#00e205"/><path d="M125 165l1 2h8l4 9-7 7v-2h-8c-3.021-5.318-3.021-5.318-2.937-8 1.35-2.879 3.11-5.406 4.938-8z" fill="#f8fcf8"/><path d="M56 202c1.938 1.063 1.938 1.063 3 3 .633 5.91.633 5.91-1.125 8.938-2.81 1.592-4.703 1.516-7.875 1.063-2.375-1.625-2.375-1.625-4-4-.453-3.172-.53-5.065 1.063-7.875 3.044-1.768 5.501-1.493 8.938-1.125z" fill="#003c39"/><path d="M206 202c2.438 1.563 2.438 1.563 4 4-.214 6.214-.214 6.214-3 9-4.336.315-6.327.449-10-2-.652-6.842-.652-6.842 1.125-10 2.82-1.504 4.731-1.449 7.875-1z" fill="#003e38"/><path d="M110 163h2l4 6.875 1.156 1.973C120 176.773 120 176.773 120 179l-5.937.063-3.34.035C108 179 108 179 107 178c-.63-5.755-.09-9.979 3-15z" fill="#001e3e"/><path d="M109 183h19a128.91 128.91 0 0 1-5 11c-5.211-.248-7.442-1.921-10.898-5.527C111 187 111 187 111 185h-2v-2z" fill="#001e3f"/><path d="M134 154c4.077.528 6.256 1.647 9.313 4.375l2.113 1.836C147 162 147 162 147 165h-18c1.461-4.384 2.584-7.266 5-11z" fill="#001d3f"/><path d="M137 169l5.938-.062 3.34-.035C149 169 149 169 150 170c.63 5.755.09 9.979-3 15h-2l-4-6.875-1.156-1.973C137 171.227 137 171.227 137 169z" fill="#001c3f"/><path d="M130 152c-1.369 3.635-2.983 6.956-4.937 10.313l-1.527 2.676L122 167h-3l-5-9c5.646-4.154 8.793-6.16 16-6z" fill="#001d3e"/><path d="M136 179c2.406 2.185 3.795 4.259 5.188 7.188l1.043 2.168L143 190c-5.329 4.441-8.079 5.607-15 5 .674-3.911 2.543-6.871 4.563-10.25l1.941-3.266L136 179z" fill="#001c3f"/><path d="M156 84c1.875 1.188 1.875 1.188 3 3 .596 3.323.291 4.575-1.625 7.375C155 96 155 96 151.875 95.938 149 95 149 95 147 92c-.354-2.831-.392-4.368 1.125-6.812 2.747-1.739 4.693-1.585 7.875-1.187z" fill="#25ac17"/><path d="M101.938 83.688c3.063.313 3.063.313 5 1.375 1.729 3.153.922 5.563.063 8.938-3 2-3 2-5.5 1.813-2.754-.895-3.969-1.346-5.5-3.812.294-4.806.681-7.753 5.938-8.312z" fill="#26ac18"/><path d="M100 169h1l.262 2.527c1.274 10.203 3.721 17.463 11.699 24.184 5.792 3.662 10.747 4.761 17.477 4.977l2.217.104L138 201c-4.912 3.274-10.261 2.528-16 2-7.672-1.944-14.003-6.869-18.609-13.219-3.924-6.79-3.933-13.093-3.391-20.781z" fill="#129915"/><path d="M194 201l3 1-2 2c-.699 4.209-.671 7.854 1.5 11.563 3.545 2.038 6.508 2.224 10.5 1.438 2.603-1.353 2.603-1.353 4-4 .604-2.704.814-5.217 1-8h1c.647 3.355 1.14 6.578 1 10-3.259 3.611-5.95 4.913-10.75 5.313-4.427-.072-6.89-1.343-10.25-4.312-2.25-3.338-3.033-5.155-2.875-9.187.88-2.827 1.576-4.014 3.875-5.812z" fill="#001b42"/><path d="M107 182h24l-2 4-2-1 1-2h-19v2h2l2.75 3.375c2.745 3.347 4.928 4.699 9.25 5.625l.875-2.937C125 188 125 188 127 187c-.531 3.821-1.497 6.062-4 9-5.488-.137-8.284-2.5-12.266-5.918C109 188 109 188 107 182z" fill="#09950c"/><path d="M46 198l3 2-1.937 1c-2.503 2.427-3.021 4.475-3.289 7.926.434 3.973 2.214 5.51 5.227 8.074 3.583.512 6.557.059 10-1l-1 4c-4.026.493-7.542.87-11.121-1.266-3.657-3.132-5.716-5.039-6.191-9.984.384-4.612 2.038-7.476 5.313-10.75z" fill="#002240"/><path d="M155 169h1c.821 17.523.821 17.523-5.953 25.219C144.865 199.364 141.29 201 134 201c2.341-1.561 4.279-2.583 6.813-3.687 6.308-3.119 10.861-8.699 13.188-15.312.528-4.327.813-8.646 1-13z" fill="#159b17"/><path d="M121 147l-5.965 4.359c-6.164 4.345-10.279 7.807-11.781 15.422-.548 3.73-.93 7.464-1.254 11.219h-1c-.919-15.678-.919-15.678 3.363-21.285 9.453-9.904 9.453-9.904 16.637-9.715z" fill="#229d26"/><path d="M52.438 203.813C55 204 55 204 57 206c.25 2.5.25 2.5 0 5l-2 2c-4.556-.556-4.556-.556-6-2v-6c1-1 1-1 3.438-1.187z" fill="#00ca0a"/><path d="M107 87h1c-.312 3.375-.312 3.375-1 7-3 2-3 2-5.5 1.813-2.692-.875-3.93-1.458-5.5-3.812.313-2.187.313-2.187 1-4h2v3h7l1-4z" fill="#29b01a"/><path d="M135 168h16l-1 3-1-1-6.062-.562L137 169l8 14h-3c-1.824-2.52-1.824-2.52-3.687-5.812l-1.887-3.27C135 171 135 171 135 168z" fill="#048f09"/><path d="M177 54h6l-2 4h-4v-4z" fill="#023467"/><path d="M113 198c3.123.486 5.996.999 9 2l8.188.563 2.271.131L138 201c-4.893 3.262-10.28 2.567-16 2-3.215-1.011-6.087-2.314-9-4v-1z" fill="#088e0d"/><path d="M131 151l7 1v1l-2.293.152c-2.922.617-2.922.617-4.508 3.352l-1.512 3.059-1.551 3.066L127 165l-2-1c2.891-9.595 2.891-9.595 6-13z" fill="#41b342"/><path d="M60 206h2c.462 3.976.31 5.569-2.062 8.875-3.588 2.595-5.605 2.55-9.937 2.125v-2l3.375-.875c3.628-.817 3.628-.817 5.625-3.125.648-2.571.648-2.571 1-5z" fill="#00f002"/><path d="M137 153c4.561.463 6.359 1.937 9.313 5.375l2.113 2.398C150 163 150 163 150 166l-4-1-.246-1.77c-.983-2.909-2.451-3.995-4.816-5.918L137 154v-1z" fill="#119616"/><path d="M43 206l3 1 2 5 2 2v3h5v1c-2.625.438-2.625.438-6 0-3.447-2.748-5.811-5.519-6.375-9.937L43 206z" fill="#00d00a"/><path d="M151 168h1c.501 7.578-.05 12.458-4 19l-3-1 1.395-1.547c2.065-3.155 2.575-6.011 3.293-9.703l.762-3.828L151 168z" fill="#1b9c1d"/><path d="M201 204c4.875.875 4.875.875 6 2v6c-1 1-1 1-4.062 1.063L200 213l-1-6 2 3h4v-3l-5-1 1-2z" fill="#00cb0b"/><path d="M110 159h3c-1 2-1 2-3 5-2.438 5.26-3.486 10.246-4 16h-1c-.451-8.151.373-14.06 5-21z" fill="#2ba92d"/><path d="M126 159c1 3 1 3 .004 5.262l-1.441 2.426-1.434 2.449L122 171h-3l-1-5 3 1 5-8z" fill="#098e0f"/><path d="M212 205h1c.647 3.355 1.107 6.577 1 10-1.937 2.625-1.937 2.625-5 4-2.762.296-5.206.189-8 0v-1l6.055-1.27c2.316-.654 2.316-.654 3.945-3.73.451-2.049.451-2.049.625-4.187L212 205z" fill="#003b38"/><path d="M60 202c1.25 2.125 1.25 2.125 2 4h-2v5h-1l-1-8-7-1v-1c3.726-1.035 5.794-1.322 9 1z" fill="#00d209"/><path d="M155 169h1l.125 7.188.051 2.041c.04 4.06-.376 7.121-2.176 10.771l-3-1 1.438-2.187c2.631-5.125 2.32-11.174 2.563-16.812z" fill="#38ad39"/><path d="M199 206h6l1 4-5 1-2-5z" fill="#007327"/><path d="M49 202l2 1-1 2v7l-4-1c-.369-5.538-.369-5.538 1.5-7.875L49 202z" fill="#005332"/><path d="M208 206h2c-.25 3.375-.25 3.375-1 7-2.062 1.438-2.062 1.438-4 2l-3-2 1.875-.125L206 212c1.305-2.996 1.305-2.996 2-6z" fill="#004f33"/><path d="M111 160c3.3 2.805 5.085 6.169 7 10l-1 3-2.5-3.875-1.406-2.18C112 165 112 165 112 163h-2l1-3z" fill="#06900a"/><path d="M51 206h4v5l-5-1 1-4z" fill="#00652d"/><path d="M101 87l4 1-1 4-4-1 1-4z" fill="#003334"/><path d="M150 88h5v4h-5v-4z" fill="#003236"/><path d="M111 152c-1.443 3.366-3.333 5.51-6 8 .376-2.782.673-4.588 2.438-6.812C109 152 109 152 111 152z" fill="#1a9c1c"/><path d="M177 54l5 1-1 3h-4v-4z" fill="#e2e7ec"/><path d="M201 215c3.125-.187 3.125-.187 6 0v3h-8l2-3z" fill="#00d20a"/><path d="M194 201l3 1-2 2-1 7h-1l-1-8 2-2z" fill="#003a39"/><path d="M104 85v2l-3 1-2 3-2-4c3-2 3-2 7-2z" fill="#12a201"/></svg>