<svg xmlns="http://www.w3.org/2000/svg" width="256" height="256" xmlns:v="https://vecta.io/nano"><path d="M42 20c13.915.881 24.922 6.465 34.422 16.578C81.064 42.009 84.616 47.247 87 54l2.168-1.172C108.698 42.621 130.691 39.465 152 46c6.214 2.261 12.104 5.017 18 8l1.18-2.711c5.692-12.516 14.228-22.536 27.031-28.281C203.7 20.986 209.185 20.352 215 20c.695 12.513-4.21 22.817-12.25 32.188C197.282 58.047 191.495 62.17 184 65l1.102 1.434L190 73l1.559 2.078C200.809 88.053 204.35 103.26 203 119c-1.932 8.154-6.932 12.469-13.812 16.75-4.298 1.685-8.646 2.487-13.187 3.25l1.793 1.18c6.864 4.859 11.016 10.031 12.738 18.402l.406 2.543c.768 4.595 2.415 7.008 5.34 10.551 4.596 6.201 8.542 13.952 9.848 21.574L207 197c2.395 1.325 2.395 1.325 5 2 3.207 3.649 3.519 7.163 3.355 11.848-.666 4.033-2.958 6.104-6.105 8.465-5.085 1.554-8.886 1.357-13.562-.937-3.02-2.669-4.391-4.563-5.687-8.375.151-3.634.788-5.655 2.699-8.758 1.652-3.22 1.652-3.22.5-6.672l-1.512-3.445-1.488-3.492L189 185l-1.25 2.895C180.094 205.208 169.332 219.476 152 228c-3.395.719-3.395.719-6 1l-.883-2.047c-2.616-5.693-4.458-9.124-10.117-11.953-5.397-1.799-10.1-1.695-15.25.625-5.797 3.228-7.976 8.167-9.75 14.375-7.065-2.748-12.991-6.396-19-11l-2.316-1.738C78.468 208.965 72.437 197.174 68 185c-2.745 4.915-4.891 9.245-5 15 .969 1.685 1.97 3.352 3 5 .597 3.581.738 5.863-1.277 8.969-4.795 5.721-4.795 5.721-8.641 6.34-4.711.268-7.417-.065-11.082-3.184-2.895-2.774-3.918-4.277-4.312-8.375.37-4.439 1.516-6.332 4.313-9.75l2.023-1.328c2.573-2.177 2.96-3.945 3.852-7.172 2.482-8.027 6.033-15.06 11.375-21.562 2.907-3.683 3.554-6.919 4.281-11.488C68.054 149.495 72.661 144.734 79 140l2-1-2.633-.516C67.824 136.267 61.324 132.86 55 124c-4.154-10.113-2.017-23.14 1.831-33.164 3.167-7.247 6.912-14.136 11.916-20.285C70.403 68.502 71.71 66.293 73 64l-2.219-.324C66.192 62.561 62.791 59.724 59 57l-2.687-1.875c-8.474-7.787-14.941-19.437-15.5-31C41 21 41 21 42 20z" fill="#121212"/><path d="M124.608 53.629l7.273-.079c17.768-.129 32.614 3.241 45.932 15.762 9.791 10.317 13.87 21.025 13.531 35.156-.626 6.435-2.848 10.357-7.469 14.781-10.308 7.724-20.832 7.33-33.164 7.246l-5.617.004c-3.908.001-7.817-.011-11.725-.034l-14.982-.013c-3.861.007-7.721-.001-11.582-.013l-5.523-.001c-2.577.003-5.153-.014-7.73-.035l-2.274.014c-6.44-.09-11.965-1.427-16.966-5.73L72 118l-1.379-1.516C64.539 109.623 65.528 101.718 66 93c1.698-11.25 8.608-20.694 17.125-27.926 13.015-9.39 25.839-11.448 41.483-11.445z" fill="#131313"/><path d="M42 20c13.915.881 24.922 6.465 34.422 16.578C81.064 42.009 84.616 47.247 87 54l2.168-1.172C108.698 42.621 130.691 39.465 152 46c6.214 2.261 12.104 5.017 18 8l1.18-2.711c5.692-12.516 14.228-22.536 27.031-28.281C203.7 20.986 209.185 20.352 215 20c.695 12.513-4.21 22.817-12.25 32.188C197.282 58.047 191.495 62.17 184 65l1.102 1.434L190 73l1.559 2.078C200.809 88.053 204.35 103.26 203 119c-1.617 6.828-5.265 11.114-11 15-7.095 4.199-14.057 4.152-22.069 4.161l-3.028.015-9.887.027-6.898.017-14.455.02-18.473.058-14.248.025-6.808.024-9.547.009-2.809.028c-7.882-.05-16.32-1.13-22.215-6.822l-1.871-1.746c-5.271-5.66-6.874-10.921-6.779-18.702.62-15.034 6.368-28.932 15.833-40.563C70.403 68.502 71.71 66.293 73 64l-2.219-.324C66.192 62.561 62.791 59.724 59 57l-2.687-1.875c-8.474-7.787-14.941-19.437-15.5-31C41 21 41 21 42 20zm34 52c-8.718 11.23-11.189 21.875-10 36 1.499 6.506 5.499 11.178 11 14.75 5.262 3.247 9.968 3.409 16.066 3.443l2.456.025 8.04.056 2.785.016 14.611.061 12.04.082 14.583.081 5.53.046c16.75.246 16.75.246 31.167-7.608 5.785-6.115 7.17-11.575 7.155-19.936-.398-13.667-7.702-23.67-17.246-32.765-12.884-11.138-27.893-12.77-44.317-12.641-2.433.016-4.865 0-7.298-.019C104.015 53.564 88.957 57.962 76 72z" fill="#7c7c7c"/><path d="M138.813 148.563c6.23 3.236 12.21 7.958 15.188 14.438 2.323 7.404 2.231 16.38-1 23.438-3.847 6.589-9.441 11.818-16.809 14.125-8.333 1.664-15.801.67-23.191-3.562-7.178-5.023-10.905-12.959-12.445-21.457-.403-7.668 2.919-13.949 7.633-19.793 8.376-8.854 18.946-11.827 30.625-7.187z" fill="#747474"/><path d="M42 20c13.914.881 25.01 6.466 34.457 16.648C86 47.903 86 47.903 86 56c-1.828 1.852-1.828 1.852-4.25 3.625l-2.391 1.789L77 63l-1.934 1.367c-3.228.989-4.956-.336-7.879-1.867-13.02-6.992-20.567-17.329-25.5-31.187-.735-3.543-.904-6.704-.687-10.312l1-1z" fill="#111"/><path d="M215 20c.695 12.513-4.21 22.817-12.25 32.188C196.745 58.612 190.178 62.868 182 66l-12-12c5.911-13.584 14.234-24.883 28.281-30.992C203.711 21.055 209.211 20 215 20z" fill="#121212"/><path d="M138.813 148.563c6.23 3.236 12.21 7.958 15.188 14.438 2.323 7.404 2.231 16.38-1 23.438-3.847 6.589-9.441 11.818-16.809 14.125-8.333 1.664-15.801.67-23.191-3.562-7.178-5.023-10.905-12.959-12.445-21.457-.403-7.668 2.919-13.949 7.633-19.793 8.376-8.854 18.946-11.827 30.625-7.187zM113 156l-1 3-3 1c-4.263 6.455-5.149 12.35-4 20 2.583 7.486 7.706 12.803 14.688 16.375 8.428 1.59 15.213 1.485 22.668-2.988C144.29 192 144.29 192 145 189l3-1c4.2-6.04 5.016-12.854 4-20-1.843-6.578-6.37-11.294-12-15-8.868-3.622-19.81-4.17-27 3z" fill="#f4f4f4"/><path d="M215 22c-.577 13.566-6.188 24.984-16.008 34.367C193.879 60.558 188.165 63.663 182 66c-2.196-2.209-4.261-4.41-6-7 .125-2.937.125-2.937 1-5l3.049-.578c4.889-1.41 7.721-4.579 11.162-8.18l1.981-2.009 6.183-6.358 6.248-6.379 3.87-3.973C213.892 22 213.892 22 215 22z" fill="#2c2c2c"/><path d="M41 22c4.61 3.735 8.807 7.768 12.941 12.02l1.619 1.657 6.69 6.896 4.941 5.072 1.497 1.584C71.969 52.535 74.35 53.709 79 54c.813 2.688.813 2.688 1 6-2.437 2.875-2.437 2.875-5 5-11.617-3.047-20.571-9.861-27-20-4.213-7.324-7.42-14.383-7-23z" fill="#333"/><path d="M125 152l-4.375 2.5-2.461 1.406C116 157 116 157 114 157l1.313 1.938c2.132 3.87 3.394 7.851 4.688 12.063 2.649-3.197 4.94-6.395 7-10l1 2c-.937 2.125-.937 2.125-2 4h8l4 9-4 4-1.295 1.628c-2.434 1.959-4.093 1.659-7.178 1.517l-3.225-.139-3.365-.193-3.377-.135c-8.29-.407-8.29-.407-10.561-2.678-1.007-7.613-.232-13.592 4-20l3-1 .75-1.812c2.57-4.497 7.221-6.905 12.25-5.187z" fill="#8b8b8b"/><path d="M159 79c3.125 2.438 3.125 2.438 5 5l1 1c.547 4.846.746 8.765-1.812 13-4.068 3.719-6.561 4.5-11.898 4.387-3.936-.665-5.59-2.49-8.289-5.387-2.312-3.258-2.472-6.063-2-10 4.445-7.97 9.268-9.302 18-8z" fill="#f3f3f3"/><path d="M107 79c3.661 1.592 6.164 3.424 8 7 .405 4.254.453 6.867-1.125 10.813-3.208 3.743-6.47 4.927-11.25 5.813C97.36 101.717 94.14 99.307 91 95c-.972-3.228-.911-5.762 0-9 3.954-6.886 8.588-7.719 16-7z" fill="#f4f4f4"/><path d="M136 151c5.586 2.255 9.71 6.012 13 11l-1 4h-22v-2l-5 8c-2.687-2.687-3.458-3.597-4.625-6.937l-.727-2.027c-.636-1.997-1.165-3.996-1.648-6.035 7.189-4.672 13.315-7.753 22-6z" fill="#6b6b6b"/><path d="M141.648 147.609c7.98 4.719 13.603 10.686 15.961 19.727 1.253 8.546.008 16.626-5.012 23.617-5.005 6.36-11.582 10.518-19.598 12.047-7.073.571-12.536-.073-19-3v-2l-1.746-.25c-5.169-1.72-8.975-7.324-11.437-11.996-3.096-8.311-2.748-16.303.859-24.367 8.196-14.772 24.234-21.057 39.973-13.777zm-36.242 11.324c-3.977 5.845-5.561 12.05-4.406 19.066 2.574 8.763 6.228 15.695 14.285 20.309 6.863 3.143 13.792 4.038 21.129 2.031 7.139-2.834 13.449-7.537 17.086-14.402 2.766-7.178 2.719-16.047.438-23.375-3.347-7.304-9.692-11.633-16.937-14.562-12.87-4.29-23.482.851-31.594 10.934z" fill="#747474"/><path d="M149 163l.938 1.938c.897 1.999.897 1.999 2.063 3.063 1.046 8.234-.743 13.992-5 21h-3c-1.754-2.414-1.754-2.414-3.562-5.625l-1.816-3.164c-2.149-4.257-3.551-8.574-4.621-13.211h-8v-1l22-1 1-2z" fill="#6a6a6a"/><path d="M206 199c3.438 1.938 3.438 1.938 6 5 .804 3.175.754 5.818 0 9-1.992 3.051-3.337 4.594-6.937 5.473-3.884.287-5.741-.265-9.062-2.41-2.332-3.571-2.74-5.708-2.48-9.902 1.471-6.614 6.372-8.232 12.48-7.16z" fill="#535353"/><path d="M56 199c3.438 2 3.438 2 6 5 1.093 4.138.42 7.141-1.437 10.938-3.14 2.527-5.383 3.105-9.367 3.309C49 218 49 218 45.938 216.188 43.252 211.769 42.953 208.046 44 203c3.387-4.31 6.699-4.837 12-4z" fill="#2e2e2e"/><path d="M127 161l1 2-2 4h8l4 9-7 7v-2h-8c-3.07-5.403-3.07-5.403-2.781-7.875.985-2.68 2.342-4.947 3.844-7.375l1.66-2.703L127 161z" fill="#f9f9f9"/><path d="M56 199c3.438 2 3.438 2 6 5 1.093 4.138.42 7.141-1.437 10.938-3.14 2.527-5.383 3.105-9.367 3.309C49 218 49 218 45.938 216.188 43.252 211.769 42.953 208.046 44 203c3.387-4.31 6.699-4.837 12-4zm-8.937 4.125c-1.592 2.81-1.516 4.703-1.062 7.875 1.417 2.583 1.417 2.583 4 4 5.057-.143 5.057-.143 9-3 .449-4.642.449-4.642-1.062-8.937-3.536-1.939-7.38-1.967-10.875.063z" fill="#a6a6a6"/><path d="M110 162h2l1.75 3.563 4.5 8.313C120 177 120 177 120 179h-13c-.275-6.68-.095-11.068 3-17z" fill="#1b1b1b"/><path d="M206 199c3.438 1.938 3.438 1.938 6 5 .804 3.175.754 5.818 0 9-1.992 3.051-3.337 4.594-6.937 5.473-3.884.287-5.741-.265-9.062-2.41-2.332-3.571-2.74-5.708-2.48-9.902 1.471-6.614 6.372-8.232 12.48-7.16zm-8.375 4.688c-1.787 2.195-1.787 2.195-2.062 4.813.549 3.136.981 4.427 3.438 6.5a18.87 18.87 0 0 0 8 0c2.456-2.073 2.889-3.364 3.438-6.5-.595-3.398-1.64-4.512-4.437-6.5-3.708-.618-5.294-.502-8.375 1.688z" fill="#a6a6a6"/><path d="M137 169h13c.275 6.68.095 11.068-3 17-2.958-2.612-4.719-5.666-6.687-9.062l-1.887-3.223C137 171 137 171 137 169zm-3-15l5 1v2l1.75.25c2.928.976 4.302 2.385 6.25 4.75v3h-18c1.461-4.384 2.584-7.266 5-11z" fill="#1a1a1a"/><path d="M110 183h18a128.91 128.91 0 0 1-5 11c-4.641-.281-7.14-2.451-10.547-5.332C111 187 111 187 110 183zm26-4c3.246 3.155 5.95 5.892 6.063 10.625C141 192 141 192 138.375 193.813c-3.676 1.293-6.507 1.42-10.375 1.188.674-3.911 2.543-6.871 4.563-10.25l1.941-3.266L136 179z" fill="#181818"/><path d="M129 153c-1.764 4.972-4.394 9.434-7 14h-3c-1.387-1.426-1.387-1.426-2.687-3.312l-1.324-1.863C114 160 114 160 114 157c4.695-3.59 9.231-4 15-4z" fill="#161616"/><path d="M157 85l2 2c-.187 3.5-.187 3.5-1 7-3 2-3 2-5.5 1.813-2.731-.888-3.891-1.442-5.5-3.812-.427-2.845-.361-4.364 1.063-6.875 3.11-1.806 5.555-.925 8.938-.125z" fill="#888"/><path d="M101.938 83.688c3.063.313 3.063.313 5 1.375 1.729 3.153.922 5.563.063 8.938-3 2-3 2-5.5 1.813-2.754-.895-3.969-1.346-5.5-3.812.294-4.806.681-7.753 5.938-8.312z" fill="#858585"/><path d="M194 201c1.154 3.462.992 6.143.84 9.746.179 2.525.899 4.082 2.16 6.254 6.544.578 6.544.578 12.563-1.5 2.026-3.524 2.168-6.453 2.438-10.5h1c.647 3.355 1.14 6.578 1 10-3.259 3.611-5.95 4.913-10.75 5.313-4.427-.072-6.89-1.343-10.25-4.312-2.25-3.338-3.033-5.155-2.875-9.187.88-2.827 1.576-4.014 3.875-5.812z" fill="#1d1d1d"/><path d="M132 151c-.623 2.953-1.569 5.275-3.066 7.891l-1.221 2.148-1.275 2.211-1.287 2.258L122 171h-3c-1.062-1.812-1.062-1.812-2-4l1-3 3 3 8-14-8 1c3.514-3.374 6.261-3.273 11-3z" fill="#656565"/><path d="M42 20c2.953 1.969 4.778 4.077 7.038 6.771 3.826 4.346 7.976 8.39 12.077 12.474l4.739 4.745 3.033 3.029 2.757 2.753c2.344 2.34 2.344 2.34 5.357 4.227-5.691-.195-8.554-4.045-12.27-7.879l-2.064-2.081-6.479-6.603-4.412-4.467L41 22l1-2z" fill="#1e1e1e"/><path d="M200 202c3.519-.32 5.42-.372 8.438 1.563C210 206 210 206 209.875 209.625 209 213 209 213 207 215c-1.875.301-1.875.301-4 .313l-2.125.051L199 215c-2.152-3.228-2.201-4.284-2-8 2 3 2 3 2 5h7v-6c-3.471-.75-3.471-.75-7-1l1-3z" fill="#393939"/><path d="M156 165h1c1.71 6.955 1.172 14.551-1.125 21.313-2.657 3.808-5.501 7.484-8.875 10.688h-2c1.064-2.395 2.129-4.147 3.875-6.125 5.848-7.912 6.823-16.241 7.125-25.875z" fill="#6a6a6a"/><path d="M134 147c5.519-.849 8.558 1.194 12.883 4.281 3.946 3.203 7.287 6.919 9.117 11.719a98.32 98.32 0 0 1 .125 7.75l-.027 2.113L156 178h-1l-.297-3.07-.453-4.055-.187-2.016c-.869-7.383-4.569-11.953-10.113-16.535-3.134-2.129-6.346-3.187-9.949-4.324v-1z" fill="#7e7e7e"/><path d="M52.438 203.813C55 204 55 204 57 206c.25 2.5.25 2.5 0 5l-2 2c-4.556-.556-4.556-.556-6-2v-6c1-1 1-1 3.438-1.187z" fill="#919191"/><path d="M43 205h1l.25 3.75c.382 2.833.776 4.295 2.25 6.813 3.804 2.187 7.343 1.525 11.5.438l3-2-3 6c-4.001.49-7.522.833-11.121-1.195-3.198-2.646-5.33-4.546-5.879-8.805.938-2.75.938-2.75 2-5z" fill="#1d1d1d"/><path d="M59 206c1.563 1.188 1.563 1.188 3 3-.139 2.785-.528 4.409-2.277 6.598-3.101 2.524-6.828 2.655-10.723 2.402-2.562-1.812-2.562-1.812-4-4v-2c3.875.875 3.875.875 5 2a176.79 176.79 0 0 0 7-1l2-7z" fill="#a1a1a1"/><path d="M125 152l-4.375 2.5-2.461 1.406C116 157 116 157 114 157l1.313 1.938c2.109 3.828 3.757 7.78 4.688 12.063l-1 3-2.937-5.125-1.652-2.883c-1.44-3.055-2.019-5.654-2.41-8.992 7.802-6.502 7.802-6.502 13-5z" fill="#898989"/><path d="M151 168h1c.714 8.346-.655 13.846-5 21h-3c-1.824-2.625-1.824-2.625-3.687-6l-1.887-3.375L137 177l2-1 5 9h3c2.096-5.694 3.45-10.952 4-17z" fill="#939393"/><path d="M145 196v2l-3.75 1.938-2.109 1.09c-3.916 1.779-7.351 2.131-11.641 2.16l-2.844.043c-2.716-.236-4.335-.846-6.656-2.23v-2l2.172.48c7.702 1.415 14.069 1.031 21.051-2.605C143 196 143 196 145 196z" fill="#787878"/><path d="M177 54h6l-2 4h-4v-4z" fill="#2d2d2d"/><path d="M132 151c4.389.51 7.337 1.522 11 4-3.201 1.6-5.723.032-9-1l-.812 2.188c-1.177 2.788-2.579 5.253-4.187 7.813l-2-1c3.143-8.571 3.143-8.571 5-12z" fill="#878787"/><path d="M134 145l3 2-3.289.113-4.336.199-2.16.068c-4.818.243-7.873 1.399-12.215 3.619-2.375-.312-2.375-.312-4-1 7.503-4.742 14.146-6.18 23-5z" fill="#666"/><path d="M109 182h22l-2.75 5.938-1.547 3.34C125 194 125 194 122.797 194.879L121 195l2-1 .375-1.625C124 190 124 190 128 183h-18l-1 2v-3z" fill="#696969"/><path d="M149 163c2 3.875 2 3.875 2 5h-16l-1 2v-3h-8v-1l22-1 1-2z" fill="#9b9b9b"/><path d="M200 200c3.964-.311 6.389-.325 9.938 1.563C212 204 212 204 212.313 207.75L212 211h-2l-.875-2.875c-.893-3.177-.893-3.177-3.125-5.125-2.323-.4-4.657-.74-7-1l1-2z" fill="#adadad"/><path d="M110 151c2.121.41 2.121.41 4 1l-1.426 1.137c-5.69 4.677-8.421 8.741-10.574 15.863h-1c-.748-5.986 1.573-9.376 5-14 2.063-2.562 2.063-2.562 4-4z" fill="#757575"/><path d="M133 181l2 1-2.75 4.875-1.547 2.742c-1.76 2.463-2.913 3.327-5.703 4.383 1.662-5.499 3.114-9.743 8-13z" fill="#898989"/><path d="M201 204c4.875.875 4.875.875 6 2v6l-1 1-7-1v-5l2 3h4v-3l-5-1 1-2z" fill="#939393"/><path d="M111 160c2.916 2.593 4.714 5.59 6.688 8.938l1.887 3.152C121 175 121 175 121 179c-2.255-2.919-4.265-5.915-6.187-9.062l-1.605-2.598C112 165 112 165 112 162l-2-1 1-1z" fill="#707070"/><path d="M132 151c-.706 3.669-2.277 6.705-4 10-.931-2.606-1.149-3.642-.062-6.25L129 153l-8 1c3.514-3.374 6.261-3.273 11-3z" fill="#5e5e5e"/><path d="M100 165h1l1 20c-2.559-3.839-3.139-6.426-3.125-10.937l-.008-2.59c.124-2.299.489-4.269 1.133-6.473z" fill="#5a5a5a"/><path d="M212 205h1c.647 3.355 1.107 6.577 1 10-1.937 2.625-1.937 2.625-5 4-2.762.296-5.206.189-8 0v-1l6.055-1.27c2.316-.654 2.316-.654 3.945-3.73.451-2.049.451-2.049.625-4.187L212 205z" fill="#2e2e2e"/><path d="M197 207c2 3 2 3 2 5 4.651.269 4.651.269 9-1l-1 4-3.875.188-2.18.105L199 215c-2.152-3.228-2.201-4.284-2-8z" fill="#2d2d2d"/><path d="M43 205h1l.313 3.75c.426 3.529 1.169 5.622 3.688 8.25-2.6-.359-3.872-.889-5.875-2.625C41 212 41 212 41.813 208.25L43 205z" fill="#2e2e2e"/><path d="M51 202l7 1 1 7-1.687-2.437c-2.531-2.805-3.638-3.256-7.312-3.562l1-2z" fill="#2b2b2b"/><path d="M206 199v1l-2.875.25L200 201c-1.15 1.967-1.15 1.967-2 4-2.125.75-2.125.75-4 1 2.86-6.379 4.882-7.403 12-7z" fill="#8b8b8b"/><path d="M139 155c4.957 1.239 7.117 2.786 10 7-3 0-3 0-5-1.937L142 158l-3-1v-2z" fill="#646464"/><path d="M151 87l4 1v4h-5l1-5z" fill="#2c2c2c"/><path d="M45 212l4 1 1 4h5v1c-3.703.337-5.395.477-8.375-1.875C45 214 45 214 45 212z" fill="#989898"/><path d="M51 206h4l-1 5-4-1 1-4z" fill="#4a4a4a"/><path d="M126 193h2v2h6c-2 2-2 2-5.625 2.125L125 197l1-4z" fill="#616161"/><path d="M101 87l4 1-1 4-4-1 1-4z" fill="#282828"/><path d="M49 202l2 1-2 7-3 1c-.369-5.538-.369-5.538 1.5-7.875L49 202z" fill="#4b4b4b"/><path d="M110 159h3c-1.81 3.62-4.117 6.214-7 9 1.059-3.403 2.009-6.014 4-9z" fill="#868686"/><path d="M177 54l5 1-1 3h-4v-4z" fill="#e6e6e6"/></svg>