<svg xmlns="http://www.w3.org/2000/svg" width="256" height="256" xmlns:v="https://vecta.io/nano"><path d="M42 20c13.915.881 24.922 6.465 34.422 16.578C81.064 42.009 84.616 47.247 87 54l2.168-1.172C108.698 42.621 130.691 39.465 152 46c6.214 2.261 12.104 5.017 18 8l1.18-2.711c5.692-12.516 14.228-22.536 27.031-28.281C203.7 20.986 209.185 20.352 215 20c.695 12.513-4.21 22.817-12.25 32.188C197.282 58.047 191.495 62.17 184 65l1.102 1.434L190 73l1.559 2.078C200.809 88.053 204.35 103.26 203 119c-1.932 8.154-6.932 12.469-13.812 16.75-4.298 1.685-8.646 2.487-13.187 3.25l1.793 1.18c6.864 4.859 11.016 10.031 12.738 18.402l.406 2.543c.768 4.595 2.415 7.008 5.34 10.551 4.596 6.201 8.542 13.952 9.848 21.574L207 197c2.395 1.325 2.395 1.325 5 2 3.207 3.649 3.519 7.163 3.355 11.848-.666 4.033-2.958 6.104-6.105 8.465-5.085 1.554-8.886 1.357-13.562-.937-3.02-2.669-4.391-4.563-5.687-8.375.151-3.634.788-5.655 2.699-8.758 1.652-3.22 1.652-3.22.5-6.672l-1.512-3.445-1.488-3.492L189 185l-1.25 2.895C180.094 205.208 169.332 219.476 152 228c-3.395.719-3.395.719-6 1l-.883-2.047c-2.616-5.693-4.458-9.124-10.117-11.953-5.397-1.799-10.1-1.695-15.25.625-5.797 3.228-7.976 8.167-9.75 14.375-7.065-2.748-12.991-6.396-19-11l-2.316-1.738C78.468 208.965 72.437 197.174 68 185c-2.745 4.915-4.891 9.245-5 15 .969 1.685 1.97 3.352 3 5 .597 3.581.738 5.863-1.277 8.969-4.795 5.721-4.795 5.721-8.641 6.34-4.711.268-7.417-.065-11.082-3.184-2.895-2.774-3.918-4.277-4.312-8.375.37-4.439 1.516-6.332 4.313-9.75l2.023-1.328c2.573-2.177 2.96-3.945 3.852-7.172 2.482-8.027 6.033-15.06 11.375-21.562 2.907-3.683 3.554-6.919 4.281-11.488C68.054 149.495 72.661 144.734 79 140l2-1-2.633-.516C67.824 136.267 61.324 132.86 55 124c-4.154-10.113-2.017-23.14 1.831-33.164 3.167-7.247 6.912-14.136 11.916-20.285C70.403 68.502 71.71 66.293 73 64l-2.219-.324C66.192 62.561 62.791 59.724 59 57l-2.687-1.875c-8.474-7.787-14.941-19.437-15.5-31C41 21 41 21 42 20z" fill="#232323"/><path d="M142.742 150.453c5.314 3.641 9.863 7.75 11.816 14.051 1.493 8.441 1.973 17.223-2.945 24.566-5.596 6.693-11.427 11.185-20.211 12.242-7.647.344-14.273-1.188-20.441-5.855-6.207-5.771-9.639-12.708-10.211-21.145.189-8.5 3.325-14.254 9.125-20.363 9.205-8.444 22.037-9.695 32.867-3.496z" fill="#474747"/><path d="M215 20c.695 12.513-4.21 22.817-12.25 32.188C196.745 58.612 190.178 62.868 182 66l-12-12c5.911-13.584 14.234-24.883 28.281-30.992C203.711 21.055 209.211 20 215 20z" fill="#333"/><path d="M42 20c13.914.881 25.01 6.466 34.457 16.648C86 47.903 86 47.903 86 56c-4.222 4-4.222 4-7 4v-5l-5-1v5h4c-.342 2.569-.588 3.685-2.684 5.289-3.422 1.05-5.01-.156-8.129-1.789-13.02-6.992-20.567-17.329-25.5-31.187-.735-3.543-.904-6.704-.687-10.312l1-1z" fill="#323232"/><path d="M142.742 150.453c5.314 3.641 9.863 7.75 11.816 14.051 1.493 8.441 1.973 17.223-2.945 24.566-5.596 6.693-11.427 11.185-20.211 12.242-7.647.344-14.273-1.188-20.441-5.855-6.207-5.771-9.639-12.708-10.211-21.145.189-8.5 3.325-14.254 9.125-20.363 9.205-8.444 22.037-9.695 32.867-3.496zM113 156l-1 3-3 1c-3.74 6.473-4.947 12.584-4 20 2.665 7.47 7.686 12.793 14.688 16.375 8.428 1.59 15.213 1.485 22.668-2.988C144.29 192 144.29 192 145 189l3-1c4.2-6.04 5.016-12.854 4-20-1.843-6.578-6.37-11.294-12-15-8.868-3.622-19.81-4.17-27 3z" fill="#eee"/><path d="M215 21l-13.397 13.617-4.554 4.636-6.561 6.65-2.043 2.105-1.94 1.941-1.689 1.716C182.591 53.301 180.71 53.632 178 54l-1 5c-3.653-1.25-4.781-1.671-7-5 5.911-13.584 14.234-24.883 28.281-30.992C210.342 18.671 210.342 18.671 215 21zM43 21c10.558-.797 19.007 3.236 27.285 9.59C77.079 36.621 82.89 43.376 86 52v4c-4.222 4-4.222 4-7 4v-5l-2.046-.566c-4.194-2.036-6.981-5.071-10.224-8.375l-2.064-2.069-4.289-4.33-6.603-6.65-4.17-4.201-2.007-2.02-1.832-1.861-1.623-1.644C43 22 43 22 43 21z" fill="#1c1c1c"/><path d="M125 165l1 2h8l4 9-1.832 1.582c-2.582 2.88-3.565 5.472-4.855 9.105-2.243 6.243-2.243 6.243-3.312 7.313l6 1-1 2c-6.988.524-12.52.766-18.316-3.512-4.658-4.117-6.642-7.364-8.684-13.488h16l-2-5c.256-3.966 2.769-6.834 5-10z" fill="#595959"/><path d="M159 79c3.002 1.801 4.452 2.903 6 6 .518 4.799.712 8.734-1.687 13-3.535 3.057-6.134 3.85-10.75 4.438-4.812-.591-6.197-1.993-9.562-5.437-2.541-3.465-2.442-6.801-2-11 4.686-7.272 9.842-8.002 18-7z" fill="#f2f2f2"/><path d="M107 79c3.248 1.483 5.716 3.26 8 6 .791 4.142.403 7.969-1.125 11.875-3.241 3.673-6.496 4.87-11.25 5.75C97.36 101.717 94.14 99.307 91 95c-.972-3.228-.911-5.762 0-9 3.949-6.878 8.592-7.732 16-7z" fill="#f3f3f3"/><path d="M135 168h17c.547 8.525-.568 13.703-5 21h-2l-.773 1.852c-2.069 3.624-5.28 5.062-9.227 6.148-2.965-.251-5.163-.987-8-2l2.75-7.187.766-2.041c1.631-4.18 3.455-7.38 6.484-10.771l-1-1.812C135 171 135 171 135 168z" fill="#3a3a3a"/><path d="M202.438 198.313c4.626.893 6.533 2.067 9.563 5.688.804 3.175.754 5.818 0 9-1.997 3.058-3.354 4.569-6.937 5.508-2.243.195-3.894.104-6.062-.508-3.534-3.019-4.807-4.921-5.625-9.5 1.005-5.625 3.112-8.997 9.063-10.187zM56 199c4.6 2.2 4.6 2.2 6 5 .365 4.456.539 6.945-1.5 10.938-2.915 2.405-4.814 3.01-8.531 3.273-3.195-.342-4.825-1.937-6.969-4.211-1.532-3.064-1.229-5.617-1-9 2.905-6.074 5.418-6.446 12-6z" fill="#292929"/><path d="M125 165l1 2h8l4 9-7 7v-2h-8c-3.021-5.318-3.021-5.318-2.937-8 1.35-2.879 3.11-5.406 4.938-8z" fill="#f9f9f9"/><path d="M111 160c2.898 2.578 4.672 5.542 6.625 8.875l1.852 3.117C121 175 121 175 122 180h-16c1.741-14.196 1.741-14.196 5-20zm24 8h16c-.439 6.41-1.128 11.256-4 17-3.478-.967-4.832-1.774-7.02-4.715l-1.793-3.223-1.832-3.215C135 171 135 171 135 168z" fill="#1e1e1e"/><path d="M138 154c3.215 1.072 4.085 1.884 6.25 4.375l1.641 1.836L147 162l-1 3h-18c4.38-12.703 4.38-12.703 10-11zm-28 29h18l-3 11c-4.21 1.579-4.21 1.579-7 1-3.19-2.968-5.702-6.305-8-10v-2z" fill="#202020"/><path d="M202.438 198.313c4.626.893 6.533 2.067 9.563 5.688.804 3.175.754 5.818 0 9-1.997 3.058-3.354 4.569-6.937 5.508-2.243.195-3.894.104-6.062-.508-3.534-3.019-4.807-4.921-5.625-9.5 1.005-5.625 3.112-8.997 9.063-10.187zm-4.25 4.75c-1.839 3-1.494 5.502-1.187 8.938l2 3c3.007.334 5.102.533 8 0 2.447-2.065 2.878-3.391 3.5-6.5-.312-2.712-.312-2.712-2.687-4.812-3.58-2.148-5.921-2.796-9.625-.625z" fill="#4f4f4f"/><path d="M56 199c4.6 2.2 4.6 2.2 6 5 .365 4.456.539 6.945-1.5 10.938-2.915 2.405-4.814 3.01-8.531 3.273-3.195-.342-4.825-1.937-6.969-4.211-1.532-3.064-1.229-5.617-1-9 2.905-6.074 5.418-6.446 12-6zm-10 6l.313 3.875.176 2.18c.386 2.341.386 2.341 3.512 3.945 5.04-.232 5.04-.232 9-3 .355-1.908.355-1.908.313-4l.051-2.125L59 204c-4.847-3.232-8.714-2.957-13 1z" fill="#4d4d4d"/><path d="M119 153h11l-3.875 6.875-1.105 1.973c-1.506 2.656-2.85 4.983-5.02 7.152a186.84 186.84 0 0 1-3.125-4.187l-1.758-2.355C114 160 114 160 114.82 157.199L116 155h3v-2z" fill="#1e1e1e"/><path d="M135 179h2c1.289 1.609 1.289 1.609 2.625 3.75l1.352 2.109C142 187 142 187 142 191c-5.391 3.594-8.537 4.454-15 4l3-7h2l3-9z" fill="#1d1d1d"/><path d="M156 84c1.875 1.188 1.875 1.188 3 3 .596 3.323.291 4.575-1.625 7.375C155 96 155 96 151.875 95.938 149 95 149 95 147 92c-.354-2.831-.392-4.368 1.125-6.812 2.747-1.739 4.693-1.585 7.875-1.187z" fill="#4f4f4f"/><path d="M101.938 83.688c3.063.313 3.063.313 5 1.375 1.729 3.153.922 5.563.063 8.938-3 2-3 2-5.5 1.813-2.754-.895-3.969-1.346-5.5-3.812.294-4.806.681-7.753 5.938-8.312z" fill="#4c4c4c"/><path d="M152 160h3c3.61 8.092 3.826 16.67 1 25-1.125 2.5-1.125 2.5-2 4h-2l-.75 1.75c-1.417 2.55-3.126 4.268-5.25 6.25l-2-1 1.426-1.539 1.887-2.086 1.863-2.039c4.041-5.175 5.224-9.223 5.137-15.773l-.012-3.809c-.313-3.912-1.098-7.039-2.301-10.754z" fill="#464646"/><path d="M113 149l2 2-1.645 1.355c-6.267 5.296-9.553 9.464-11.355 17.645-.369 4.757.065 9.325 1 14l-3-1c-1.813-9.066-1.443-15.837 3-24 2.926-3.991 5.876-7.251 10-10z" fill="#3c3c3c"/><path d="M138.766 145.895C140.938 147 140.938 147 144 149v2l1.813.313c2.47.776 3.51 1.758 5.188 3.688l-1 3-1.504-1.426c-7.203-6.602-12.767-9.047-22.605-8.812-3.567.294-6.535 1.018-9.891 2.238v-2h2v-2c6.172-2.057 14.541-2.119 20.766-.105z" fill="#3a3a3a"/><path d="M131 154l1 2-3 9 21 1 1 2h-16l-1 2v-3h-8c-1-3-1-3 .215-5.48l1.723-2.707 1.715-2.73L131 154z" fill="#6f6f6f"/><path d="M151 168h1c.714 8.346-.655 13.846-5 21h-3c-1.824-2.625-1.824-2.625-3.687-6l-1.887-3.375L137 177l2-1 4 7h4c2.239-4.799 3.056-9.829 4-15z" fill="#5b5b5b"/><path d="M130 183l2 1-1.437 4.438-.809 2.496C129 193 129 193 128 194l6 1-1 2-5.875.125-3.305.07C121 197 121 197 119 195l2.688-.937c4.503-2.804 6.086-6.363 8.313-11.062z" fill="#404040"/><path d="M52.438 203.813C55 204 55 204 57 206c.25 2.5.25 2.5 0 5l-2 2c-4.556-.556-4.556-.556-6-2v-6c1-1 1-1 3.438-1.187z" fill="#464646"/><path d="M203.063 204.938L206 205l2 5c-1.125 1.563-1.125 1.563-3 3-3.187-.312-3.187-.312-6-1v-6c1-1 1-1 4.063-1.062z" fill="#474747"/><path d="M111 160c2.898 2.578 4.672 5.542 6.625 8.875l1.852 3.117C121 175 121 175 122 180h-16l1-3v2h13l-1.68-2.922-2.195-3.828-1.105-1.922c-1.759-3.071-3.488-6.137-5.02-9.328l1-1z" fill="#363636"/><path d="M144 197v2h-3v2c-4.367 1.669-7.957 2.248-12.625 2.188l-3.352-.02c-2.519-.14-4.624-.436-7.023-1.168l1-3 1.672.484c8.983 1.99 15.16-2.484 23.328-2.484z" fill="#3d3d3d"/><path d="M135 168h16l-1 4v-3h-13v3h2l6 12c-4.046-1.349-4.597-3.22-6.687-6.875l-1.887-3.242C135 171 135 171 135 168z" fill="#353535"/><path d="M113 161l1.313 1.438c1.711 1.799 1.711 1.799 4.688 2.563l2 2 4-2c-1.662 3.562-3.128 6.321-6 9l-3-5.375-1.687-3.023C113 163 113 163 113 161z" fill="#5c5c5c"/><path d="M44 203c1 2 1 2 .75 5.25.33 4.953 1.853 6.268 5.25 9.75-4 0-4 0-6.75-2.625-1.849-2.414-2.26-3.437-2.75-6.562.538-3.026 1.08-3.997 3.5-5.812z" fill="#262626"/><path d="M142 157c3.135.336 4.025 1.027 6.25 3.375C150 163 150 163 150 166h-21v-1l17-1c-1.855-3.917-1.855-3.917-4-7z" fill="#383838"/><path d="M135 147c5.625-.25 5.625-.25 9 2v2l1.813.313c2.47.776 3.51 1.758 5.188 3.688l-1 3-1.504-1.426c-4.31-3.95-7.979-6.62-13.496-8.574v-1z" fill="#454545"/><path d="M110 182h21l-4 8c-1-3-1-3 0-6l-17-1v-1z" fill="#343434"/><path d="M103 184l1.27 1.742c2.275 2.968 4.787 5.69 7.305 8.453C113 196 113 196 113 198c-4.492-1.982-7.32-4.919-10-9-.375-2.937-.375-2.937 0-5zm103 15v1l-2.875.25c-3.143.41-3.143.41-4.437 2.438-.818 2.751-1.3 5.47-1.687 8.313h-1c-1.45-7.25-1.45-7.25.5-10.5 3.298-1.979 5.723-1.791 9.5-1.5z" fill="#454545"/><path d="M100 170h1l2 14-3-1c-.773-4.058-1.192-7.867-1-12l1-1z" fill="#353535"/><path d="M119 153v2l-3 1c-1.025 1.76-1.025 1.76-1 4 1.354 2.73 1.354 2.73 3 5-3-1-3-1-4.812-3.312C112 159 112 159 112.625 156.813c1.789-2.358 3.313-3.812 6.375-3.812z" fill="#3f3f3f"/><path d="M151 87l4 1v4h-5l1-5z" fill="#232323"/><path d="M51 206h4l-1 5-4-1 1-4z" fill="#303030"/><path d="M205 202v3l-2.375.25c-2.772.478-2.772.478-3.937 2.813L198 210c-.687-2.312-.687-2.312-1-5 2.09-3.367 4.249-3.304 8-3z" fill="#2d2d2d"/><path d="M130 183l2 1c-1.239 4.957-2.786 7.117-7 10 1.225-4.053 2.699-7.444 5-11z" fill="#777"/><path d="M202 206h3l1 4-5 1 1-5z" fill="#303030"/><path d="M113 149l2 2-8 6c0-3 0-3 1.313-4.387L113 149z" fill="#474747"/><path d="M101 87l4 1-1 4-4-1 1-4z" fill="#222"/><path d="M74 54l4 1v4h-4v-5z" fill="#e1e1e1"/><path d="M201 203h6c2 2 2 2 2.125 4.625L209 210l-1.75-2.375c-2.079-2.425-3.34-3.482-6.25-4.625z" fill="#232323"/><path d="M177 54l5 1-1 3h-4v-4z" fill="#e7e7e7"/></svg>